<svg width="75" height="75" viewBox="0 0 75 75" fill="none" xmlns="http://www.w3.org/2000/svg">
<rect width="75" height="75" rx="8" fill="white" fill-opacity="0.05"/>
<path d="M36.8054 41.4993L25.9583 40.1939C25.375 40.1289 24.9931 39.814 24.8125 39.2493C24.632 38.6845 24.7546 38.203 25.1804 37.8047L43.0833 21.138C43.2036 21.0364 43.3379 20.9554 43.4863 20.8951C43.6343 20.8348 43.8472 20.8047 44.125 20.8047C44.5881 20.8047 44.9422 20.9991 45.1875 21.388C45.4328 21.7769 45.4352 22.1751 45.1946 22.5826L39.1946 33.4993L50.0417 34.8047C50.625 34.8697 51.007 35.1845 51.1875 35.7493C51.3681 36.314 51.2454 36.7955 50.8196 37.1939L32.9167 53.8605C32.7964 53.9622 32.6621 54.0432 32.5138 54.1034C32.3657 54.1637 32.1528 54.1939 31.875 54.1939C31.412 54.1939 31.0578 53.9994 30.8125 53.6105C30.5672 53.2216 30.5649 52.8234 30.8054 52.4159L36.8054 41.4993ZM37.5554 45.5689L46.7917 37.2355L34.8054 35.763L38.4304 29.4439L29.1804 37.8047L41.1529 39.2355L37.5554 45.5689Z" fill="#62CBE4"/>
</svg>
