<svg width="75" height="75" viewBox="0 0 75 75" fill="none" xmlns="http://www.w3.org/2000/svg">
<rect width="75" height="75" rx="8" fill="white" fill-opacity="0.05"/>
<path d="M43.8333 35.8327C44.5278 35.8327 45.1181 35.5896 45.6042 35.1035C46.0903 34.6174 46.3333 34.0271 46.3333 33.3327C46.3333 32.6382 46.0903 32.048 45.6042 31.5618C45.1181 31.0757 44.5278 30.8327 43.8333 30.8327C43.1389 30.8327 42.5486 31.0757 42.0625 31.5618C41.5764 32.048 41.3333 32.6382 41.3333 33.3327C41.3333 34.0271 41.5764 34.6174 42.0625 35.1035C42.5486 35.5896 43.1389 35.8327 43.8333 35.8327ZM32.1667 35.8327C32.8611 35.8327 33.4514 35.5896 33.9375 35.1035C34.4236 34.6174 34.6667 34.0271 34.6667 33.3327C34.6667 32.6382 34.4236 32.048 33.9375 31.5618C33.4514 31.0757 32.8611 30.8327 32.1667 30.8327C31.4722 30.8327 30.882 31.0757 30.3958 31.5618C29.9097 32.048 29.6667 32.6382 29.6667 33.3327C29.6667 34.0271 29.9097 34.6174 30.3958 35.1035C30.882 35.5896 31.4722 35.8327 32.1667 35.8327ZM38 54.166C35.6945 54.166 33.5278 53.7285 31.5 52.8535C29.4722 51.9785 27.7083 50.791 26.2083 49.291C24.7083 47.791 23.5208 46.0271 22.6458 43.9993C21.7708 41.9716 21.3333 39.8049 21.3333 37.4993C21.3333 35.166 21.7708 32.9855 22.6458 30.9577C23.5208 28.9299 24.7222 27.166 26.25 25.666C27.7778 24.166 29.5556 22.9855 31.5833 22.1243C33.6111 21.2632 35.7639 20.8327 38.0417 20.8327C38.4861 20.8327 38.8403 21.0063 39.1042 21.3535C39.3681 21.7007 39.4722 22.1105 39.4167 22.5827C39.3611 23.0549 39.1667 23.4299 38.8333 23.7077C38.5 23.9855 38.0972 24.1382 37.625 24.166C36.6528 24.1938 35.7014 24.3257 34.7708 24.5618C33.8403 24.798 32.9306 25.1382 32.0417 25.5827C29.8472 26.6938 28.0695 28.3049 26.7083 30.416C25.3472 32.5271 24.6667 34.8882 24.6667 37.4993C24.6667 41.1938 25.9653 44.3396 28.5625 46.9368C31.1597 49.5341 34.3056 50.8327 38 50.8327C40.75 50.8327 43.2222 50.0827 45.4167 48.5827C47.6111 47.0827 49.2222 45.1382 50.25 42.7493C50.75 41.6105 51.0833 40.4438 51.25 39.2493C51.4167 38.0549 51.4028 36.8466 51.2083 35.6243C51.1528 35.1521 51.2361 34.7285 51.4583 34.3535C51.6806 33.9785 52.0139 33.7216 52.4583 33.5827C52.9028 33.4438 53.3195 33.4716 53.7083 33.666C54.0972 33.8605 54.3333 34.1799 54.4167 34.6243C54.6945 36.2632 54.7361 37.9091 54.5417 39.5618C54.3472 41.2146 53.9167 42.791 53.25 44.291C51.9445 47.2355 49.9375 49.6174 47.2292 51.4369C44.5208 53.2563 41.4445 54.166 38 54.166ZM49.5 21.166C50.0556 20.6105 50.5625 20.1382 51.0208 19.7493C51.4792 19.3605 52.1111 19.166 52.9167 19.166C53.9445 19.166 54.7708 19.5202 55.3958 20.2285C56.0208 20.9368 56.3333 21.7355 56.3333 22.6243C56.3333 23.041 56.25 23.4577 56.0833 23.8743C55.9167 24.291 55.6667 24.666 55.3333 24.9993L50.6667 29.666C50.3333 29.9993 49.9445 30.166 49.5 30.166C49.0556 30.166 48.6667 29.9993 48.3333 29.666L43.6667 24.9993C43.3056 24.6382 43.0486 24.2493 42.8958 23.8327C42.7431 23.416 42.6667 22.9993 42.6667 22.5827C42.6667 21.6938 42.9861 20.9021 43.625 20.2077C44.2639 19.5132 45.0833 19.166 46.0833 19.166C46.8611 19.166 47.4722 19.3466 47.9167 19.7077C48.3611 20.0688 48.8889 20.5549 49.5 21.166ZM38 46.666C39.6111 46.666 41.1042 46.2841 42.4792 45.5202C43.8542 44.7563 44.9445 43.6938 45.75 42.3327C45.9445 42.0271 45.9375 41.7007 45.7292 41.3535C45.5208 41.0063 45.2222 40.8327 44.8333 40.8327H31.1667C30.7778 40.8327 30.4792 41.0063 30.2708 41.3535C30.0625 41.7007 30.0556 42.0271 30.25 42.3327C31.0556 43.6938 32.1528 44.7563 33.5417 45.5202C34.9306 46.2841 36.4167 46.666 38 46.666Z" fill="#62CBE4"/>
</svg>
