<svg width="40" height="40" viewBox="0 0 40 40" fill="none" xmlns="http://www.w3.org/2000/svg">
<rect width="40" height="40" rx="8" fill="white" fill-opacity="0.05"/>
<path d="M19.9992 27.5135C21.9555 25.7622 23.4526 24.0823 24.4904 22.474C25.5283 20.8657 26.0472 19.457 26.0472 18.248C26.0472 16.425 25.468 14.9263 24.3097 13.752C23.1513 12.5777 21.7145 11.9905 19.9992 11.9905C18.2838 11.9905 16.847 12.5777 15.6887 13.752C14.5303 14.9263 13.9512 16.425 13.9512 18.248C13.9512 19.457 14.4701 20.8657 15.5079 22.474C16.5458 24.0823 18.0428 25.7622 19.9992 27.5135ZM19.4147 28.8395C19.2197 28.7722 19.0433 28.668 18.8857 28.527C17.9883 27.7 17.1486 26.8483 16.3664 25.972C15.5844 25.0958 14.9047 24.2199 14.3272 23.3443C13.7495 22.4686 13.2924 21.6007 12.9559 20.7405C12.6194 19.8802 12.4512 19.0493 12.4512 18.248C12.4512 15.9403 13.1976 14.0721 14.6904 12.6432C16.1834 11.2144 17.953 10.5 19.9992 10.5C22.0453 10.5 23.8149 11.2144 25.3079 12.6432C26.8008 14.0721 27.5472 15.9403 27.5472 18.248C27.5472 19.0493 27.3789 19.8785 27.0424 20.7355C26.7059 21.5927 26.2505 22.4607 25.6762 23.3395C25.1017 24.2183 24.4234 25.0943 23.6414 25.9672C22.8594 26.8404 22.0197 27.6904 21.1222 28.5173C20.9645 28.6583 20.7867 28.764 20.5887 28.8345C20.3905 28.905 20.194 28.9403 19.9992 28.9403C19.8043 28.9403 19.6095 28.9067 19.4147 28.8395ZM21.2769 19.3355C21.6303 18.9823 21.8069 18.5564 21.8069 18.0578C21.8069 17.5591 21.6303 17.1331 21.2769 16.7798C20.9238 16.4266 20.4978 16.25 19.9992 16.25C19.5005 16.25 19.0746 16.4266 18.7214 16.7798C18.3681 17.1331 18.1914 17.5591 18.1914 18.0578C18.1914 18.5564 18.3681 18.9823 18.7214 19.3355C19.0746 19.6887 19.5005 19.8652 19.9992 19.8652C20.4978 19.8652 20.9238 19.6887 21.2769 19.3355Z" fill="#62CBE4"/>
</svg>
