<svg width="60" height="60" viewBox="0 0 60 60" fill="none" xmlns="http://www.w3.org/2000/svg">
<rect width="60" height="60" rx="13" fill="#141414"/>
<path d="M34.3333 39.6409V37.6666H31.4103C30.7454 37.6666 30.1774 37.4311 29.7063 36.9603C29.2354 36.4891 29 35.9211 29 35.2563V24.3333H25.6667V26.3076C25.6667 26.87 25.4697 27.3483 25.0757 27.7423C24.6817 28.1363 24.2034 28.3333 23.641 28.3333H19.0257C18.4632 28.3333 17.985 28.1363 17.591 27.7423C17.197 27.3483 17 26.87 17 26.3076V20.3589C17 19.7965 17.197 19.3183 17.591 18.9243C17.985 18.5303 18.4632 18.3333 19.0257 18.3333H23.641C24.2034 18.3333 24.6817 18.5303 25.0757 18.9243C25.4697 19.3183 25.6667 19.7965 25.6667 20.3589V22.3333H34.3333V20.3589C34.3333 19.7965 34.5303 19.3183 34.9243 18.9243C35.3183 18.5303 35.7966 18.3333 36.359 18.3333H40.9743C41.5368 18.3333 42.015 18.5303 42.409 18.9243C42.803 19.3183 43 19.7965 43 20.3589V26.3076C43 26.87 42.803 27.3483 42.409 27.7423C42.015 28.1363 41.5368 28.3333 40.9743 28.3333H36.359C35.7966 28.3333 35.3183 28.1363 34.9243 27.7423C34.5303 27.3483 34.3333 26.87 34.3333 26.3076V24.3333H31V35.2563C31 35.376 31.0384 35.4744 31.1153 35.5513C31.1922 35.6281 31.2906 35.6666 31.4103 35.6666H34.3333V33.6923C34.3333 33.1298 34.5303 32.6516 34.9243 32.2576C35.3183 31.8636 35.7966 31.6666 36.359 31.6666H40.9743C41.5368 31.6666 42.015 31.8636 42.409 32.2576C42.803 32.6516 43 33.1298 43 33.6923V39.6409C43 40.2034 42.803 40.6816 42.409 41.0756C42.015 41.4696 41.5368 41.6666 40.9743 41.6666H36.359C35.7966 41.6666 35.3183 41.4696 34.9243 41.0756C34.5303 40.6816 34.3333 40.2034 34.3333 39.6409ZM36.3333 26.3333H41V20.3333H36.3333V26.3333ZM36.3333 39.6666H41V33.6666H36.3333V39.6666ZM19 26.3333H23.6667V20.3333H19V26.3333Z" fill="white"/>
</svg>
