<svg width="134" height="62" viewBox="0 0 134 62" fill="none" xmlns="http://www.w3.org/2000/svg">
<g clip-path="url(#clip0_1298_3010)">
<path d="M23.064 60.6431C28.4377 55.7227 36.0858 41.0654 36.2258 29.9502C34.9836 30.3169 32.5236 31.6464 31.6133 35.7569C31.0896 38.1162 29.616 43.6906 24.1936 43.2108C16.6734 42.5446 17.7634 28.2724 29.5399 29.5651C35.1054 30.1764 36.0096 26.1575 36.0096 25.6197C34.7888 26.182 32.9529 25.9467 31.2266 25.7388C20.6131 24.4583 15.5195 30.5584 15.5195 37.5172C15.5195 41.695 18.2262 45.2095 21.2769 47.1594C22.8996 48.1954 21.7336 49.2131 20.5279 48.339C17.3189 46.0133 13.571 42.9419 13.571 36.3956C13.571 25.4638 24.6838 20.7145 27.293 18.7617C31.1657 15.8644 33.032 13.4715 32.0882 9.2051C30.5568 12.0382 26.7937 14.5106 23.9835 16.0111C16.3933 20.0605 10.4442 25.9558 10.4442 34.6139C10.4442 41.423 13.4249 45.1668 17.0053 48.067C17.8182 48.7241 16.9566 49.644 15.9153 48.8036C10.2189 44.1949 8.33736 39.0881 8.33736 32.5265C8.33736 20.1339 23.9074 8.927 16.9048 0C17.0023 9.11342 5.26232 17.0747 5.26232 32.1506C5.26232 38.92 7.96896 45.6405 15.5195 50.952C19.9677 54.0815 20.5979 57.6664 19.9464 60.9151C19.6541 62.6693 21.7701 61.8288 23.064 60.64M3.41425 21.3533C4.1145 13.0406 0.0195312 10.5223 0.0195312 10.5223C0.0195312 10.5223 0.984667 14.0491 0.281366 23.0892C-0.199679 29.2534 1.98938 34.0332 3.26202 36.9855C3.44165 37.4041 4.05666 37.0802 3.94401 36.6432C2.79011 32.2759 2.83578 28.2235 3.4173 21.3533H3.41425Z" fill="#FAFAFA"/>
<path d="M127.168 36.3006C127.168 32.4896 125.406 31.0532 121.566 31.0532C118.707 31.0532 116.025 32.1137 116.025 33.1772C116.025 33.5409 116.363 34.4944 116.911 35.1271C118.26 34.3508 119.426 33.8068 120.967 33.8068C123.411 33.8068 123.451 34.9345 123.451 36.3281C119.444 36.3281 115.167 37.1747 115.167 41.1752C115.167 43.8493 116.762 45.4843 119.539 45.4843C121.475 45.4843 122.547 44.7692 123.734 43.9899C124.242 45.628 126.538 45.3957 127.744 44.8578C127.287 44.1274 127.165 43.342 127.165 41.5908V36.3006H127.168ZM123.451 41.6641C122.668 42.4098 121.84 42.8102 120.823 42.8102C118.409 42.8102 118.306 40.1208 119.74 39.1551C120.638 38.5469 122.291 38.3635 123.451 38.3635V41.6641ZM89.8356 36.3006C89.8356 32.4896 88.0727 31.0532 84.2335 31.0532C81.3746 31.0532 78.6924 32.1137 78.6924 33.1772C78.6924 33.5409 79.0303 34.4944 79.5783 35.1271C80.9271 34.3508 82.0932 33.8068 83.6337 33.8068C86.0785 33.8068 86.1181 34.9345 86.1181 36.3281C82.1114 36.3281 77.8338 37.1747 77.8338 41.1752C77.8338 43.8493 79.4291 45.4843 82.2089 45.4843C84.1452 45.4843 85.2139 44.7692 86.4043 43.9899C86.9128 45.628 89.2114 45.3957 90.414 44.8578C89.9573 44.1274 89.8356 43.342 89.8356 41.5908V36.3006ZM86.1212 41.6641C85.3387 42.4098 84.5106 42.8102 83.4937 42.8102C81.0793 42.8102 80.9758 40.1208 82.4098 39.1551C83.308 38.5469 84.9612 38.3635 86.1212 38.3635V41.6641ZM51.1571 25.6133H46.0117V45.1451C46.2218 45.2123 47.2691 45.2796 47.5157 45.2582C49.1081 45.2154 49.8966 44.5675 49.8966 43.1128V38.1679H51.3519C55.7849 38.1679 59.07 36.1967 59.07 31.4597C59.07 26.7227 55.2916 25.6163 51.1571 25.6163V25.6133ZM49.8997 35.3868V28.5013C52.6337 28.2416 55.0694 28.7397 55.0694 31.6553C55.0694 35.3196 52.5424 35.3838 49.8997 35.3838V35.3868ZM65.1713 43.1128C65.1713 44.5675 64.3828 45.2123 62.7905 45.2582C62.5438 45.2796 61.4965 45.2123 61.2864 45.1451V33.492C61.2864 32.0373 62.075 31.3925 63.6673 31.3466C63.9139 31.3252 64.9643 31.3925 65.1713 31.4597V43.1128ZM109.123 37.7828C109.123 36.0286 109.087 35.5519 108.946 35.1668C108.341 33.5042 104.848 34.0055 104.848 35.7108V43.1097C104.848 44.5644 104.06 45.2093 102.468 45.2521C102.221 45.2735 101.174 45.2062 100.964 45.139V37.7798C100.964 36.0256 100.927 35.5488 100.79 35.1637C100.184 33.5012 96.6889 34.0024 96.6889 35.7077V43.1066C96.6889 44.5614 95.9004 45.2062 94.3081 45.249C94.0615 45.2704 93.0141 45.2032 92.804 45.1359V31.4505C94.3964 31.2244 96.1561 31.2458 96.488 32.8105C98.0377 30.604 103.323 30.1058 104.334 33.4064C105.275 31.6125 107.342 30.9004 109.312 31.0716C112.658 31.3588 112.996 34.1063 113.008 37.4589V43.1036C113.008 44.5583 112.219 45.2032 110.627 45.2459C110.38 45.2673 109.33 45.2001 109.123 45.1329V37.7737V37.7828ZM68.1642 45.142C68.3712 45.2093 69.4216 45.2765 69.6682 45.2551C71.2605 45.2123 72.0491 44.5644 72.0491 43.1128V36.1875C72.0491 34.6839 74.296 33.6234 76.2476 35.2707C76.7256 34.47 77.1914 33.2109 77.1914 32.4713C77.1914 30.879 73.8393 30.1792 71.8786 32.8044C71.5193 31.3008 69.6956 31.203 68.1672 31.4597V45.1451L68.1642 45.142ZM133.979 25.7264C133.799 25.6652 132.98 25.6133 132.664 25.6133C130.95 25.6133 130.094 26.252 130.094 27.7618V45.142C130.304 45.2093 131.352 45.2765 131.598 45.2551C133.191 45.2123 133.979 44.5644 133.979 43.1128V25.7264ZM63.2319 25.6133C62.2759 25.6133 61.4326 26.3223 61.3017 27.2881C61.1312 28.5655 62.279 29.6749 63.5394 29.4671C64.6568 29.2837 65.4058 28.1254 65.1013 27.0252C64.8699 26.1878 64.0844 25.6163 63.2319 25.6163V25.6133Z" fill="#FAFAFA"/>
<path d="M46.2739 61.6775C46.1217 61.5247 46.0547 61.3383 46.0547 61.1152V51.3875C46.0547 51.1491 46.1217 50.9627 46.2587 50.8099C46.3957 50.6571 46.5814 50.5898 46.8189 50.5898H52.6462C52.8319 50.5898 52.9842 50.6571 53.1029 50.7763C53.2217 50.8955 53.2886 51.0483 53.2886 51.2347C53.2886 51.4211 53.2217 51.5739 53.1029 51.6931C52.9842 51.8123 52.8319 51.8795 52.6462 51.8795H47.6135V55.3666H51.9155C52.1012 55.3666 52.2535 55.4338 52.3722 55.553C52.491 55.6722 52.5579 55.825 52.5579 56.0114C52.5579 56.1979 52.491 56.3507 52.3722 56.4699C52.2535 56.5891 52.1012 56.6563 51.9155 56.6563H47.6135V61.0938C47.6135 61.3139 47.5283 61.5003 47.376 61.6561C47.2238 61.8089 47.0381 61.8945 46.8158 61.8945C46.5936 61.8945 46.4079 61.8089 46.2556 61.6561L46.2739 61.6745V61.6775Z" fill="#FAFAFA"/>
<path d="M54.8608 51.898C54.6751 51.7115 54.5898 51.4915 54.5898 51.2348C54.5898 50.978 54.6751 50.758 54.8608 50.5716C55.0465 50.3852 55.2688 50.2812 55.5215 50.2812C55.7742 50.2812 55.9964 50.3668 56.1822 50.5532C56.3679 50.7397 56.4531 50.9628 56.4531 51.2164C56.4531 51.4701 56.3679 51.6932 56.1822 51.8796C55.9964 52.066 55.7742 52.1516 55.5215 52.1516C55.2688 52.1516 55.0465 52.066 54.8608 51.8796V51.898ZM54.7786 61.1672V54.2634C54.7786 54.0586 54.8456 53.8906 54.9978 53.7347C55.15 53.5819 55.3205 53.5146 55.5245 53.5146C55.7285 53.5146 55.896 53.5819 56.0512 53.7347C56.2035 53.8875 56.2705 54.0586 56.2705 54.2634V61.1672C56.2705 61.372 56.2035 61.5401 56.0512 61.6929C55.899 61.8457 55.7285 61.9129 55.5245 61.9129C55.3205 61.9129 55.1531 61.8457 54.9978 61.6929C54.8456 61.5401 54.7786 61.3689 54.7786 61.1672Z" fill="#FAFAFA"/>
<path d="M58.9145 61.713C58.7623 61.5602 58.6953 61.3891 58.6953 61.1874V54.2835C58.6953 54.0788 58.7623 53.9107 58.9145 53.7548C59.0668 53.602 59.2372 53.5348 59.4412 53.5348C59.627 53.5348 59.7975 53.602 59.9314 53.7396C60.0654 53.8771 60.1506 54.0452 60.1689 54.2316L60.5403 54.0452C61.338 53.654 62.0657 53.4492 62.7263 53.4492C63.2165 53.4492 63.6763 53.5165 64.0995 53.6693C64.5227 53.8221 64.8789 54.0268 65.1681 54.2988C65.4391 54.5555 65.6431 54.8764 65.777 55.2524C65.911 55.6283 65.981 56.0867 65.981 56.6307V61.1721C65.981 61.3769 65.914 61.545 65.7618 61.6978C65.6096 61.8506 65.4391 61.9178 65.2351 61.9178C65.0311 61.9178 64.8637 61.8506 64.7084 61.6978C64.5531 61.545 64.4892 61.3738 64.4892 61.1721V56.6979C64.4892 56.3251 64.4557 56.0347 64.3887 55.83C64.3217 55.6252 64.2182 55.4388 64.066 55.286C63.7767 54.9956 63.2531 54.8428 62.5071 54.8428H62.4889C62.1327 54.8428 61.7612 54.8948 61.3715 54.9803C60.9818 55.0659 60.6591 55.1668 60.4064 55.286C60.3394 55.3196 60.3059 55.3532 60.2876 55.3868C60.2694 55.4204 60.2694 55.4724 60.2694 55.558V61.1538C60.2694 61.3585 60.2024 61.5266 60.0502 61.6794C59.8979 61.8322 59.7274 61.8995 59.5234 61.8995C59.3195 61.8995 59.152 61.8322 58.9967 61.6794L58.9115 61.713H58.9145Z" fill="#FAFAFA"/>
<path d="M69.6235 61.4407C69.0632 61.0831 68.6401 60.5727 68.3356 59.9279C68.0311 59.28 67.8789 58.5496 67.8789 57.7183C67.8789 56.8351 68.0646 56.068 68.4208 55.4231C68.7771 54.7752 69.252 54.2832 69.8274 53.944C70.4029 53.6047 71.0148 53.4336 71.639 53.4336C72.0104 53.4336 72.3666 53.4855 72.7076 53.5864C73.0456 53.6873 73.4201 53.8401 73.8098 54.0632L74.233 54.2832V54.2649C74.233 54.0601 74.2999 53.892 74.4522 53.7361C74.6044 53.5833 74.7749 53.5161 74.9758 53.5161C75.1768 53.5161 75.3473 53.5833 75.5026 53.7361C75.6548 53.889 75.7218 54.0601 75.7218 54.2649V61.1687C75.7218 61.3735 75.6548 61.5415 75.5026 61.6944C75.3503 61.8472 75.1798 61.9144 74.9758 61.9144C74.7719 61.9144 74.6044 61.8472 74.4522 61.6944C74.2999 61.5415 74.233 61.3704 74.233 61.1687V61.1167L73.758 61.3704C73.3348 61.5904 72.9603 61.7432 72.6224 61.8472C72.2844 61.948 71.9282 62 71.5537 62C70.8261 62 70.1806 61.8135 69.6235 61.456V61.4376V61.4407ZM72.9786 60.4536C73.4018 60.3527 73.758 60.2152 74.0472 60.0471C74.1325 59.9951 74.1842 59.9462 74.1995 59.8943C74.2177 59.8423 74.233 59.7751 74.233 59.6895V55.7104C74.233 55.6096 74.2147 55.5393 74.1812 55.4904C74.1477 55.4415 74.096 55.3895 74.0107 55.3376C73.6728 55.1664 73.3165 55.032 72.9421 54.9281C72.5706 54.8272 72.2144 54.7752 71.8734 54.7752C71.0757 54.7752 70.4668 55.0136 70.0436 55.5057C69.6204 55.9977 69.3982 56.7312 69.3982 57.7C69.3982 59.6223 70.1958 60.5911 71.7882 60.5911C72.1444 60.5911 72.5341 60.5391 72.9573 60.4383L72.9755 60.4566L72.9786 60.4536Z" fill="#FAFAFA"/>
<path d="M78.3325 61.713C78.1803 61.5602 78.1133 61.3891 78.1133 61.1874V54.2835C78.1133 54.0788 78.1803 53.9107 78.3325 53.7548C78.4847 53.602 78.6552 53.5348 78.8562 53.5348C79.0419 53.5348 79.2124 53.602 79.3463 53.7396C79.4833 53.8771 79.5655 54.0452 79.5838 54.2316L79.9553 54.0452C80.7529 53.654 81.4806 53.4492 82.1413 53.4492C82.6314 53.4492 83.0912 53.5165 83.5144 53.6693C83.9376 53.8221 84.2938 54.0268 84.583 54.2988C84.854 54.5555 85.058 54.8764 85.192 55.2524C85.329 55.6252 85.3959 56.0867 85.3959 56.6307V61.1721C85.3959 61.3769 85.329 61.545 85.1767 61.6978C85.0245 61.8506 84.854 61.9178 84.6531 61.9178C84.4521 61.9178 84.2816 61.8506 84.1263 61.6978C83.9741 61.545 83.9071 61.3738 83.9071 61.1721V56.6979C83.9071 56.3251 83.8736 56.0347 83.8067 55.83C83.7397 55.6252 83.6362 55.4388 83.4839 55.286C83.1947 54.9956 82.671 54.8428 81.9251 54.8428H81.9068C81.5506 54.8428 81.1792 54.8948 80.7895 54.9803C80.3998 55.0659 80.077 55.1668 79.8243 55.286C79.7574 55.3196 79.7239 55.3532 79.7056 55.3868C79.6873 55.4204 79.6873 55.4724 79.6873 55.558V61.1538C79.6873 61.3585 79.6203 61.5266 79.4681 61.6794C79.3159 61.8322 79.1454 61.8995 78.9414 61.8995C78.7374 61.8995 78.57 61.8322 78.4177 61.6794L78.3325 61.713Z" fill="#FAFAFA"/>
<path d="M88.4487 60.9424C88.059 60.5512 87.7545 60.0744 87.5506 59.5304C87.3466 58.9864 87.2461 58.3905 87.2461 57.7273C87.2461 57.0641 87.3648 56.4529 87.6023 55.8906C87.8398 55.3282 88.1625 54.8545 88.5857 54.4634C88.9419 54.1394 89.3469 53.8857 89.8218 53.7146C90.2968 53.5434 90.7717 53.4609 91.2619 53.4609C91.8708 53.4609 92.4493 53.5985 92.9912 53.8705C93.5332 54.1425 93.9899 54.5184 94.3796 55.0104C94.5501 55.2304 94.6323 55.4352 94.6323 55.6216C94.6323 55.7928 94.5653 55.9456 94.4466 56.0648C94.3278 56.184 94.1756 56.2512 93.9899 56.2512C93.8711 56.2512 93.7707 56.2176 93.6854 56.1656C93.6002 56.1137 93.4997 56.0281 93.3627 55.912L93.0734 55.64C92.769 55.3496 92.4645 55.1296 92.1601 54.9921C91.8556 54.8545 91.5329 54.7873 91.1949 54.7873C90.9057 54.7873 90.6195 54.8393 90.3303 54.9401C90.041 55.041 89.8036 55.1938 89.6178 55.3833C89.3651 55.64 89.1611 55.9609 89.0089 56.352C88.8567 56.7432 88.7897 57.168 88.7897 57.6448C88.7897 58.1216 88.8567 58.5464 88.9754 58.9375C89.0942 59.3287 89.2647 59.6527 89.4839 59.9063C89.9406 60.3984 90.586 60.6368 91.4324 60.6368C92.0078 60.6368 92.702 60.432 93.5149 60.0255C93.7676 59.9063 93.9716 59.8391 94.1238 59.8391C94.2761 59.8391 94.4131 59.8911 94.5318 60.0103C94.6505 60.1294 94.7023 60.2639 94.7023 60.4351C94.7023 60.5726 94.6688 60.6887 94.6018 60.7926C94.5348 60.8935 94.4161 61.0127 94.2456 61.1319C93.8894 61.3855 93.4662 61.5903 92.9577 61.7431C92.4493 61.8959 91.9256 61.9815 91.3837 61.9815C90.1811 61.9815 89.2159 61.6086 88.4852 60.8751L88.4517 60.9424H88.4487Z" fill="#FAFAFA"/>
<path d="M98.3277 61.6923C97.8375 61.5059 97.4143 61.2339 97.0581 60.8763C96.6684 60.4851 96.3639 60.0084 96.1599 59.4644C95.9559 58.9204 95.8555 58.3244 95.8555 57.6949C95.8555 56.8605 96.026 56.1118 96.3822 55.4669C96.7384 54.819 97.2134 54.3117 97.8223 53.9541C98.4312 53.5966 99.1101 53.4102 99.8561 53.4102C100.602 53.4102 101.244 53.5813 101.838 53.9358C102.432 54.2934 102.888 54.7701 103.211 55.363C103.534 55.959 103.701 56.6222 103.701 57.3526C103.701 57.6062 103.65 57.7957 103.531 57.9149C103.412 58.0341 103.242 58.0861 103.007 58.0861H97.4326C97.4995 58.8501 97.7705 59.4797 98.2455 59.9564C98.6869 60.3996 99.2959 60.6196 100.057 60.6196C100.413 60.6196 100.769 60.5676 101.107 60.4668C101.445 60.3659 101.835 60.1948 102.258 59.9748C102.377 59.9075 102.496 59.8556 102.596 59.822C102.697 59.7883 102.8 59.77 102.885 59.77C103.056 59.77 103.19 59.8219 103.293 59.9228C103.394 60.0237 103.446 60.1612 103.446 60.3293C103.446 60.4821 103.412 60.6196 103.327 60.7388C103.242 60.858 103.089 60.9955 102.87 61.1483C102.532 61.402 102.109 61.6067 101.601 61.7595C101.092 61.9124 100.584 61.9979 100.094 61.9979C99.4329 61.9979 98.8574 61.8971 98.3642 61.7076L98.3307 61.6893L98.3277 61.6923ZM102.206 56.9308C102.155 56.2677 101.917 55.7389 101.494 55.3478C101.071 54.9566 100.529 54.7518 99.85 54.7518C99.171 54.7518 98.5956 54.9382 98.1541 55.3294C97.7127 55.7206 97.46 56.2463 97.3747 56.9278H102.203L102.206 56.9308Z" fill="#FAFAFA"/>
</g>
<defs>
<clipPath id="clip0_1298_3010">
<rect width="134" height="62" fill="white"/>
</clipPath>
</defs>
</svg>
