<svg width="75" height="75" viewBox="0 0 75 75" fill="none" xmlns="http://www.w3.org/2000/svg">
<rect width="75" height="75" rx="8" fill="white" fill-opacity="0.05"/>
<path d="M26.8333 48.6667L38.5833 44.5L31 36.9167L26.8333 48.6667ZM56.375 29.2083C56.125 29.4583 55.8333 29.5833 55.5 29.5833C55.1667 29.5833 54.875 29.4583 54.625 29.2083L54.5 29.0833C54.1111 28.6944 53.625 28.5 53.0417 28.5C52.4583 28.5 51.9722 28.6944 51.5833 29.0833L43.125 37.5417C42.875 37.7917 42.5833 37.9167 42.25 37.9167C41.9167 37.9167 41.625 37.7917 41.375 37.5417C41.125 37.2917 41 37 41 36.6667C41 36.3333 41.125 36.0417 41.375 35.7917L49.8333 27.3333C50.7222 26.4444 51.7917 26 53.0417 26C54.2917 26 55.3611 26.4444 56.25 27.3333L56.375 27.4583C56.625 27.7083 56.75 28 56.75 28.3333C56.75 28.6667 56.625 28.9583 56.375 29.2083ZM34.625 24.2083C34.875 23.9583 35.1667 23.8333 35.5 23.8333C35.8333 23.8333 36.125 23.9583 36.375 24.2083L36.5833 24.4167C37.4722 25.3056 37.9167 26.3611 37.9167 27.5833C37.9167 28.8056 37.4722 29.8611 36.5833 30.75L36.4583 30.875C36.2083 31.125 35.9167 31.25 35.5833 31.25C35.25 31.25 34.9583 31.125 34.7083 30.875C34.4583 30.625 34.3333 30.3333 34.3333 30C34.3333 29.6667 34.4583 29.375 34.7083 29.125L34.8333 29C35.2222 28.6111 35.4167 28.1389 35.4167 27.5833C35.4167 27.0278 35.2222 26.5556 34.8333 26.1667L34.625 25.9583C34.375 25.7083 34.25 25.4167 34.25 25.0833C34.25 24.75 34.375 24.4583 34.625 24.2083ZM41.375 20.875C41.625 20.625 41.9167 20.5 42.25 20.5C42.5833 20.5 42.875 20.625 43.125 20.875L44.9167 22.6667C45.8055 23.5556 46.25 24.625 46.25 25.875C46.25 27.125 45.8055 28.1944 44.9167 29.0833L39.7917 34.2083C39.5417 34.4583 39.25 34.5833 38.9167 34.5833C38.5833 34.5833 38.2917 34.4583 38.0417 34.2083C37.7917 33.9583 37.6667 33.6667 37.6667 33.3333C37.6667 33 37.7917 32.7083 38.0417 32.4583L43.1667 27.3333C43.5555 26.9444 43.75 26.4583 43.75 25.875C43.75 25.2917 43.5555 24.8056 43.1667 24.4167L41.375 22.625C41.125 22.375 41 22.0833 41 21.75C41 21.4167 41.125 21.125 41.375 20.875ZM54.7083 40.875C54.4583 41.125 54.1667 41.25 53.8333 41.25C53.5 41.25 53.2083 41.125 52.9583 40.875L51.1667 39.0833C50.7778 38.6944 50.2917 38.5 49.7083 38.5C49.125 38.5 48.6389 38.6944 48.25 39.0833L46.4583 40.875C46.2083 41.125 45.9167 41.25 45.5833 41.25C45.25 41.25 44.9583 41.125 44.7083 40.875C44.4583 40.625 44.3333 40.3333 44.3333 40C44.3333 39.6667 44.4583 39.375 44.7083 39.125L46.5 37.3333C47.3889 36.4444 48.4583 36 49.7083 36C50.9583 36 52.0278 36.4444 52.9167 37.3333L54.7083 39.125C54.9583 39.375 55.0833 39.6667 55.0833 40C55.0833 40.3333 54.9583 40.625 54.7083 40.875ZM22.5 50.8333L28.7917 33.3333C28.9305 32.9722 29.1458 32.6944 29.4375 32.5C29.7292 32.3056 30.0417 32.2083 30.375 32.2083C30.5972 32.2083 30.8055 32.25 31 32.3333C31.1944 32.4167 31.375 32.5417 31.5417 32.7083L42.7917 43.9583C42.9583 44.125 43.0833 44.3056 43.1667 44.5C43.25 44.6944 43.2917 44.9028 43.2917 45.125C43.2917 45.4583 43.1944 45.7708 43 46.0625C42.8055 46.3542 42.5278 46.5694 42.1667 46.7083L24.6667 53C24.3333 53.1389 24.0139 53.1597 23.7083 53.0625C23.4028 52.9653 23.1389 52.8056 22.9167 52.5833C22.6944 52.3611 22.5347 52.0972 22.4375 51.7917C22.3403 51.4861 22.3611 51.1667 22.5 50.8333Z" fill="#62CBE4"/>
</svg>
