<svg width="26" height="32" viewBox="0 0 26 32" fill="none" xmlns="http://www.w3.org/2000/svg">
<path d="M12.58 28.3558C15.8406 25.4369 18.3357 22.6372 20.0654 19.9567C21.7951 17.2761 22.66 14.9283 22.66 12.9133C22.66 9.875 21.6947 7.37722 19.7642 5.42C17.8336 3.46278 15.4389 2.48417 12.58 2.48417C9.72111 2.48417 7.32639 3.46278 5.39583 5.42C3.46528 7.37722 2.5 9.875 2.5 12.9133C2.5 14.9283 3.36486 17.2761 5.09458 19.9567C6.82431 22.6372 9.31944 25.4369 12.58 28.3558ZM12.58 31.6825C8.38556 28.0481 5.24028 24.6657 3.14417 21.5354C1.04806 18.4049 0 15.5308 0 12.9133C0 9.06722 1.24403 5.95347 3.73208 3.57208C6.22042 1.19069 9.16972 0 12.58 0C15.9903 0 18.9396 1.19069 21.4279 3.57208C23.916 5.95347 25.16 9.06722 25.16 12.9133C25.16 15.5308 24.1119 18.4049 22.0158 21.5354C19.9197 24.6657 16.7744 28.0481 12.58 31.6825Z" fill="#62CBE4"/>
</svg>
