<svg width="75" height="75" viewBox="0 0 75 75" fill="none" xmlns="http://www.w3.org/2000/svg">
<rect width="75" height="75" rx="8" fill="white" fill-opacity="0.05"/>
<path d="M31.8888 35.8612C31.8888 37.2685 32.5971 38.6388 34.0138 39.9721C35.4304 41.3054 36.6049 42.396 37.5371 43.2437C37.6882 43.3682 37.8449 43.4304 38.0071 43.4304C38.169 43.4304 38.3267 43.3671 38.48 43.2404C39.4008 42.4043 40.5696 41.3119 41.9863 39.9633C43.4029 38.6144 44.1113 37.2465 44.1113 35.8596C44.1113 34.9346 43.7801 34.1435 43.1179 33.4862C42.456 32.8287 41.6667 32.5 40.75 32.5C40.2036 32.5 39.6874 32.6088 39.2013 32.8263C38.7151 33.044 38.3147 33.3426 38 33.7221C37.6933 33.3401 37.2974 33.041 36.8121 32.8246C36.3265 32.6082 35.8028 32.5 35.2408 32.5C34.3211 32.5 33.5325 32.831 32.875 33.4929C32.2175 34.1551 31.8888 34.9446 31.8888 35.8612ZM38 54C37.8367 54 37.685 53.9861 37.545 53.9583C37.405 53.9306 37.265 53.8889 37.125 53.8333C33.3008 52.5464 30.2685 50.2154 28.0279 46.8404C25.7871 43.4654 24.6667 39.7861 24.6667 35.8025V27.7362C24.6667 27.1482 24.8344 26.6189 25.17 26.1483C25.5058 25.6778 25.9399 25.3367 26.4721 25.125L37.0279 21.1804C37.3613 21.0601 37.6853 21 38 21C38.3147 21 38.6388 21.0601 38.9721 21.1804L49.5279 25.125C50.0601 25.3367 50.4942 25.6778 50.83 26.1483C51.1656 26.6189 51.3333 27.1482 51.3333 27.7362V35.8025C51.3333 39.7861 50.2129 43.4654 47.9721 46.8404C45.7315 50.2154 42.6992 52.5464 38.875 53.8333C38.735 53.8889 38.595 53.9306 38.455 53.9583C38.315 53.9861 38.1633 54 38 54ZM38 51.25C41.0925 50.2408 43.6249 48.301 45.5971 45.4304C47.5693 42.5601 48.5554 39.3518 48.5554 35.8054V27.7362L38 23.7638L27.4446 27.7362V35.8054C27.4446 39.3518 28.4307 42.5601 30.4029 45.4304C32.3751 48.301 34.9075 50.2408 38 51.25Z" fill="#62CBE4"/>
</svg>
