<svg width="75" height="75" viewBox="0 0 75 75" fill="none" xmlns="http://www.w3.org/2000/svg">
<rect width="75" height="75" rx="8" fill="white" fill-opacity="0.05"/>
<path d="M29.8334 36.4165C30.2222 35.6387 30.625 34.8887 31.0417 34.1665C31.4584 33.4443 31.9167 32.7221 32.4167 31.9999L30.0834 31.5415L26.5834 35.0415L29.8334 36.4165ZM49.9167 24.9582C47.9722 25.0137 45.8959 25.5832 43.6875 26.6665C41.4792 27.7498 39.4722 29.1943 37.6667 30.9999C36.5 32.1665 35.4584 33.4165 34.5417 34.7499C33.625 36.0832 32.9445 37.3332 32.5 38.4999L37.25 43.2082C38.4167 42.7637 39.6667 42.0832 41 41.1665C42.3334 40.2499 43.5834 39.2082 44.75 38.0415C46.5556 36.236 48 34.236 49.0834 32.0415C50.1667 29.8471 50.7361 27.7776 50.7917 25.8332C50.7917 25.7221 50.7709 25.611 50.7292 25.4998C50.6875 25.3887 50.625 25.2915 50.5417 25.2082C50.4584 25.1248 50.3611 25.0623 50.25 25.0207C50.1389 24.979 50.0278 24.9582 49.9167 24.9582ZM40.75 34.9582C40.1111 34.3193 39.7917 33.5346 39.7917 32.604C39.7917 31.6735 40.1111 30.8887 40.75 30.2499C41.3889 29.611 42.1806 29.2915 43.125 29.2915C44.0695 29.2915 44.8611 29.611 45.5 30.2499C46.1389 30.8887 46.4584 31.6735 46.4584 32.604C46.4584 33.5346 46.1389 34.3193 45.5 34.9582C44.8611 35.5971 44.0695 35.9165 43.125 35.9165C42.1806 35.9165 41.3889 35.5971 40.75 34.9582ZM39.3334 45.8749L40.7084 49.1665L44.2084 45.6665L43.75 43.3332C43.0278 43.8332 42.3056 44.2846 41.5834 44.6874C40.8611 45.0901 40.1111 45.486 39.3334 45.8749ZM53.9584 23.6248C54.1806 26.6804 53.6806 29.6596 52.4584 32.5624C51.2361 35.4651 49.3056 38.236 46.6667 40.8749L47.5 44.9999C47.6111 45.5554 47.5834 46.0971 47.4167 46.6249C47.25 47.1526 46.9722 47.611 46.5834 47.9999L41.3334 53.2499C40.9167 53.6665 40.4167 53.8262 39.8334 53.729C39.25 53.6318 38.8472 53.3054 38.625 52.7499L36.0834 46.7915L28.9584 39.6665L23 37.1249C22.4445 36.9026 22.1111 36.4999 22 35.9165C21.8889 35.3332 22.0417 34.8332 22.4584 34.4165L27.7084 29.1665C28.0972 28.7776 28.5625 28.4999 29.1042 28.3332C29.6459 28.1665 30.1945 28.1387 30.75 28.2499L34.875 29.0832C37.5139 26.4443 40.2847 24.5137 43.1875 23.2915C46.0903 22.0693 49.0695 21.5693 52.125 21.7915C52.3472 21.8193 52.5695 21.8818 52.7917 21.979C53.0139 22.0762 53.2084 22.2082 53.375 22.3748C53.5417 22.5415 53.6736 22.736 53.7709 22.9582C53.8681 23.1804 53.9306 23.4026 53.9584 23.6248ZM24.5417 44.1249C25.5139 43.1526 26.7014 42.6596 28.1042 42.6457C29.507 42.6318 30.6945 43.111 31.6667 44.0832C32.6389 45.0554 33.1181 46.2429 33.1042 47.6457C33.0903 49.0485 32.5972 50.236 31.625 51.2082C30.2917 52.5415 28.7153 53.3332 26.8959 53.5832C25.0764 53.8332 23.25 54.0832 21.4167 54.3332C21.6667 52.4999 21.9167 50.6735 22.1667 48.854C22.4167 47.0346 23.2084 45.4582 24.5417 44.1249ZM26.9167 46.4582C26.4445 46.9304 26.1181 47.4999 25.9375 48.1665C25.757 48.8332 25.6111 49.5137 25.5 50.2082C26.1945 50.0971 26.875 49.9582 27.5417 49.7915C28.2084 49.6249 28.7778 49.3054 29.25 48.8332C29.5834 48.4999 29.7639 48.0971 29.7917 47.6249C29.8195 47.1526 29.6667 46.7499 29.3334 46.4165C29 46.0832 28.5972 45.9235 28.125 45.9374C27.6528 45.9512 27.25 46.1249 26.9167 46.4582Z" fill="#62CBE4"/>
</svg>
